<svg width="41" height="41" viewBox="0 0 41 41" fill="none" xmlns="http://www.w3.org/2000/svg">
<path d="M29.7246 0.5C35.7234 0.5 40.5 5.62034 40.5 12.2891C40.4999 16.3498 38.8235 20.0768 35.7949 24.1152C32.7598 28.1624 28.409 32.4691 23.1211 37.6953H23.1201L20.5 40.2949L17.8799 37.6953H17.8789C12.591 32.4691 8.24018 28.1624 5.20508 24.1152C2.17654 20.0768 0.500065 16.3498 0.5 12.2891C0.5 5.62034 5.27662 0.5 11.2754 0.5C14.6744 0.500132 17.9584 2.22795 20.1074 4.95703L20.5 5.45605L20.8926 4.95703C23.0416 2.22795 26.3256 0.500132 29.7246 0.5Z" fill="white" stroke="#FF7575"/>
</svg>
